# xmcd CD database file generated by MAGIX-FreeDB-MP3_deluxe_17 v3.0beta1
#
# Track frame offsets:
#	183
#	17258
#	31668
#	52725
#	77310
#	87435
#	100220
#	125728
#	138748
#	155155
#	170665
#	182153
#	195435
#	216740
#
# Disc length: 3281
#
# Revision: 0
# Processed by: cddbd v1.5.2PL0 Copyright (c) Steve Scherf et al.
# Submitted via: MAGIX-FreeDB-MP3_deluxe_17 v3.0beta1
#
DISCID=b90ccf0e
DTITLE=Philharminic Rock Orchestra and Strings - L'Autunno - Der Herbst - Adagio Molto
DYEAR=1900
DGENRE=Classical
TTITLE0=L'Autunno - Der Herbst - Adagio Molto
TTITLE1=L'Autunno - Der Herbst - Allegro (La Caccia)
TTITLE2=L'Inverno - Der Winter - Largo
TTITLE3=L'Estate - Der Sommer - Adagio-Presto-Adagio
TTITLE4=L'Estate - Der Sommer - Presto
TTITLE5=L'Autunno - Der Herbst - Allegro
TTITLE6=La Primavera - Der Frühling - Allegro
TTITLE7=L'Estate - Der Sommer - Allegro Non Molto-Allrgro
TTITLE8=La Primavera - Der Frühling - Allegro (Danza Pastorale)
TTITLE9=L'Inverno - Der Winter - Allegro
TTITLE10=La Primavera - Der Frühling - Largo
TTITLE11=L'Inverno - Der Winter - Allegro
TTITLE12=L'Inverno - Der Winter - Le Quattro Allegri Stagioni
TTITLE13=L'Inverno - Der Winter - Le Quattro Largi Stagioni
EXTD=
EXTT0=
EXTT1=
EXTT2=
EXTT3=
EXTT4=
EXTT5=
EXTT6=
EXTT7=
EXTT8=
EXTT9=
EXTT10=
EXTT11=
EXTT12=
EXTT13=
PLAYORDER=
